<svg id="Icon_-_Calendar" data-name="Icon - Calendar" xmlns="http://www.w3.org/2000/svg" width="28" height="28" viewBox="0 0 28 28">
  <rect id="Square" width="28" height="28" fill="none"/>
  <path id="Icon_-_Calendar-2" data-name="Icon - Calendar" d="M2543.012-2070.215q-.079-7.241-.158-14.481a.934.934,0,0,0-.038-.245c-.481-2.747-3.65-2.663-6.214-2.535,0-.223.009-.447.013-.669a.874.874,0,0,0-1.748,0l-.014.73c-3.475-.018-6.95-.019-10.425.029.007-.243.013-.486.01-.729a.874.874,0,0,0-1.747,0c0,.253,0,.506-.011.759-.3.006-.6.009-.9.016-1.592.035-3.59-.236-4.573,1.323a3.714,3.714,0,0,0-.412,2.115l.029,7.247c.009,2.281-.013,4.565.027,6.846a3.234,3.234,0,0,0,.762,2.361c1.232,1.28,3.7.927,5.314.964,4.781.111,9.631.1,14.411-.044,1.74-.053,4.3.147,5.317-1.587A3.828,3.828,0,0,0,2543.012-2070.215Zm-24.477-14.353c.2-1.177,2.4-1.192,4.074-1.123a13.619,13.619,0,0,0,.017,1.457c.082,1.115,1.831,1.124,1.749,0a13.32,13.32,0,0,1-.02-1.4q3.084-.041,6.168-.04c1.441,0,2.881.007,4.322.014.006.341.016.682.037,1.022.069,1.117,1.817,1.125,1.748,0-.021-.342-.031-.685-.037-1.027,1.339-.061,4.366-.357,4.512.972q.015,1.31.028,2.62c-3.187-.34-6.553.051-9.736.085-4.308.046-8.615-.228-12.923-.315A10.474,10.474,0,0,1,2518.536-2084.568Zm22.737,15.06c-.218,1.1-1.265,1.042-2.159,1.117-.988.083-1.968.122-2.959.124-2.125,0-4.25-.009-6.374.006-2.06.014-4.121.068-6.181.041-1.244-.016-4.729.42-5-1.1a25.11,25.11,0,0,1-.017-4.122l-.028-7.111c4.165.087,8.33.354,12.495.316,2.036-.018,4.072-.068,6.107-.1a30.19,30.19,0,0,1,4,.009q.037,3.3.073,6.6A22.132,22.132,0,0,1,2541.272-2069.508Z" transform="translate(-2515.79 2090.989)" fill="#bac5d0"/>
</svg>
