<svg xmlns="http://www.w3.org/2000/svg" width="16.601" height="9.558" viewBox="0 0 16.601 9.558">
  <g id="Icon_-_Arrow_Left_1" data-name="Icon - Arrow Left 1" transform="translate(0 9.558) rotate(-90)">
    <path id="Arrow_Left_1" data-name="Arrow Left 1" d="M.484,2.911q3.5,3.012,6.847,6.141c-.147-.457-.289-.919-.436-1.376-.011.033-.017.071-.028.1C6.481,9.151,8.458,10.15,9.7,9.156c2.5-1.989,4.236-4.506,6.467-6.688,1.41-1.381-.985-3.389-2.4-2C11.544,2.652,9.8,5.173,7.3,7.157c.946.457,1.892.919,2.837,1.376C10.5,7.233,9,6.361,8.05,5.5Q5.51,3.172,2.885.917C1.367-.4-1.034,1.6.484,2.911Z" transform="translate(9.558) rotate(90)" fill="#20004e"/>
  </g>
</svg>
