<svg xmlns="http://www.w3.org/2000/svg" width="22.016" height="22.012" viewBox="0 0 22.016 22.012">
  <path id="Icon_awesome-edit" data-name="Icon awesome-edit" d="M27.928-.493a2.318,2.318,0,0,1,1.65.683l2.5,2.5a2.344,2.344,0,0,1,0,3.3L30.266,7.815a.835.835,0,0,1-1.18,0L24.457,3.186a.835.835,0,0,1,0-1.18L26.274.19A2.332,2.332,0,0,1,27.928-.493Zm1.748,7.885a.167.167,0,0,0,.118-.049l1.817-1.817a1.676,1.676,0,0,0,0-2.361l-2.5-2.5a1.674,1.674,0,0,0-2.362,0L24.929,2.478a.168.168,0,0,0,0,.237l4.629,4.629A.167.167,0,0,0,29.676,7.392Zm-6.5-3.767a.828.828,0,0,1,.59.244L28.4,8.5a.835.835,0,0,1,0,1.18L17.19,20.886a.333.333,0,0,1-.2.1l-4.763.529a1.352,1.352,0,0,1-.151.008,1.332,1.332,0,0,1-1.321-1.481l.529-4.762a.333.333,0,0,1,.1-.2L22.589,3.869A.828.828,0,0,1,23.179,3.625ZM16.8,20.332,27.927,9.207a.168.168,0,0,0,0-.237L23.3,4.341a.168.168,0,0,0-.237,0L11.935,15.466l-.516,4.646a.656.656,0,0,0,.164.517.665.665,0,0,0,.57.218Z" transform="translate(-10.748 0.493)" fill="#20004e"/>
</svg>
