<svg id="Icon-instagram" xmlns="http://www.w3.org/2000/svg" width="24" height="24" viewBox="0 0 24 24">
  <rect id="Rectángulo_1426" data-name="Rectángulo 1426" width="24" height="24" fill="none"/>
  <path id="Trazado_2387" data-name="Trazado 2387" d="M196.164,12.843a3.963,3.963,0,1,1-3.962-4,3.981,3.981,0,0,1,3.962,4m2.142,0a6.1,6.1,0,1,0-6.1,6.163,6.134,6.134,0,0,0,6.1-6.163m1.669-6.406a1.427,1.427,0,1,0-1.427,1.439,1.434,1.434,0,0,0,1.427-1.439m1.973,6.406c0,3.2-.012,3.584-.069,4.849a6.74,6.74,0,0,1-.41,2.228,3.949,3.949,0,0,1-2.256,2.278,6.53,6.53,0,0,1-2.208.414c-1.253.057-1.63.07-4.8.07s-3.552-.013-4.8-.07a6.5,6.5,0,0,1-2.208-.414,3.949,3.949,0,0,1-2.256-2.278,6.663,6.663,0,0,1-.41-2.228c-.057-1.265-.069-1.644-.069-4.849s.012-3.584.069-4.849a6.663,6.663,0,0,1,.41-2.228,3.7,3.7,0,0,1,.889-1.38,3.675,3.675,0,0,1,1.367-.9,6.5,6.5,0,0,1,2.208-.414c1.252-.057,1.628-.07,4.8-.07s3.55.013,4.8.07a6.53,6.53,0,0,1,2.208.414,3.675,3.675,0,0,1,1.367.9,3.717,3.717,0,0,1,.889,1.38,6.74,6.74,0,0,1,.41,2.228c.057,1.265.069,1.644.069,4.849m2.142,0c0-3.26-.013-3.668-.072-4.948a8.834,8.834,0,0,0-.553-2.912,5.857,5.857,0,0,0-1.37-2.126,5.8,5.8,0,0,0-2.107-1.383A8.622,8.622,0,0,0,197.1.914c-1.268-.058-1.674-.071-4.9-.071s-3.633.013-4.9.071a8.648,8.648,0,0,0-2.888.559,5.805,5.805,0,0,0-2.1,1.383,5.881,5.881,0,0,0-1.372,2.126,8.876,8.876,0,0,0-.552,2.912c-.058,1.28-.071,1.688-.071,4.948s.013,3.667.071,4.948a8.876,8.876,0,0,0,.552,2.912,5.881,5.881,0,0,0,1.372,2.126,5.805,5.805,0,0,0,2.1,1.383,8.616,8.616,0,0,0,2.888.557c1.268.06,1.672.073,4.9.073s3.633-.013,4.9-.073a8.589,8.589,0,0,0,2.885-.557,6.093,6.093,0,0,0,3.477-3.509,8.834,8.834,0,0,0,.553-2.912c.058-1.281.072-1.688.072-4.948" transform="translate(-180.09 -0.843)" fill="#fff"/>
</svg>
