<svg id="Icon-Youtube" xmlns="http://www.w3.org/2000/svg" width="24" height="24" viewBox="0 0 24 24">
  <rect id="Rectángulo_1424" data-name="Rectángulo 1424" width="24" height="24" fill="none"/>
  <path id="Trazado_2385" data-name="Trazado 2385" d="M16.713,10.75,8.97,15.2V6.3Zm7.287,0a32.215,32.215,0,0,0-.5-5.87,3.03,3.03,0,0,0-2.122-2.155C19.5,2.216,12,2.216,12,2.216s-7.5,0-9.376.508A3.031,3.031,0,0,0,.5,4.879,32.293,32.293,0,0,0,0,10.75a32.286,32.286,0,0,0,.5,5.87,3.029,3.029,0,0,0,2.123,2.155c1.871.511,9.376.511,9.376.511s7.5,0,9.377-.511A3.028,3.028,0,0,0,23.5,16.62a32.208,32.208,0,0,0,.5-5.87" transform="translate(0 1.249)" fill="#fff"/>
</svg>
