<svg id="tu_cumpleaños" xmlns="http://www.w3.org/2000/svg" width="262.836" height="56.268" viewBox="0 0 262.836 56.268">
  <path id="Trazado_2484" data-name="Trazado 2484" d="M3.312,65H3.2q-.324,0-.432-.468Q5.256,42.5,5.4,41.02l1.008-8.6q.108-.216.252-.216H6.7q.216,0,.288.468-.216,1.8-2.34,23.04-.864,8.748-.936,9.036A.5.5,0,0,1,3.312,65ZM6.84,29.68H6.768q-.252,0-.324-.36v-.18a7.333,7.333,0,0,0,.324-1.908v-.648q.108-.468.36-.468.324,0,.36.756.036.288.072,1.08,0,1.44-.576,1.692ZM77,13.372q.684.072.684.432t-.648.5q-.792-.036-1.224-.036h-4.14A286.942,286.942,0,0,0,38.664,16.36Q35.5,27.268,33.156,38.788A143.332,143.332,0,0,0,30.24,66.58v1.548q.36.18.36.288v.144a1.068,1.068,0,0,1-.612,1.008h-.216q-.432-.144-.432-1.44V66.652q0-17.136,5.616-41.292Q36,21,37.224,16.54h-.036a155.78,155.78,0,0,0-20.124,3.852l-1.944.54a.792.792,0,0,1,.18.432q0,.792-2.3,1.44a4.747,4.747,0,0,1-.9.108q-1.656,0-1.872-.792V21.9q0-.324.756-.864,2.232-1.476,12.1-3.564,6.444-1.26,14.508-2.16.288-1.368.792-1.368,0-.036.144-.036h.036q.54,0,.612.648-.036.18-.144.576h.036Q56.916,13.372,77,13.372ZM41.04,45.484h.072q.54,0,.648.684v.072l-.4,1.188a4.465,4.465,0,0,0-.144,1.08q0,1.332.936,1.656a.749.749,0,0,0,.288.036q1.116,0,2.556-1.656,1.188-1.3,1.728-1.3h.108q.756,0,1.08,1.512a2.524,2.524,0,0,0,1.008,1.512,2.432,2.432,0,0,0,1.332.324h.252q2.808,0,7.956-2.448,1.332-.72,1.512-.792h.072a.141.141,0,0,1,.144.108v.072q0,.324-.972.756-5.9,3.06-9.144,3.06a2.8,2.8,0,0,1-2.232-.828A5.588,5.588,0,0,1,46.8,48.616q-.072-.108-.144-.108-.324,0-1.368,1.3a4.58,4.58,0,0,1-3.06,1.584,2.345,2.345,0,0,1-2.268-1.872,7.46,7.46,0,0,1-.108-1.116,6.367,6.367,0,0,1,.648-2.664A.757.757,0,0,1,41.04,45.484ZM79.2,44.152a5.2,5.2,0,0,1,3.456,1.4,1.418,1.418,0,0,1,.36.684v.072q0,.18-.216.216h-.036a1.5,1.5,0,0,1-.72-.432,4.258,4.258,0,0,0-2.628-1.008,4.574,4.574,0,0,0-3.6,1.872,3.481,3.481,0,0,0-.792,2.016v.108q0,1.584,2.2,1.908.468.036.9.036,4.068,0,12.1-3.348a4.65,4.65,0,0,1,.936-.4q.216,0,.252.288v.036q0,.216-1.764.936A39.93,39.93,0,0,1,84.276,50.6a23.13,23.13,0,0,1-6.336,1.26q-3.1,0-3.888-2.052a3.421,3.421,0,0,1-.144-.936,4.255,4.255,0,0,1,.828-2.268,5.4,5.4,0,0,1,1.116-1.188A5.3,5.3,0,0,1,79.2,44.152Zm12.96,1.332h.072q.54,0,.648.684v.072l-.4,1.188a4.464,4.464,0,0,0-.144,1.08q0,1.332.936,1.656a.749.749,0,0,0,.288.036q1.116,0,2.556-1.656,1.188-1.3,1.728-1.3h.108q.756,0,1.08,1.512a2.524,2.524,0,0,0,1.008,1.512,2.432,2.432,0,0,0,1.332.324h.252q2.808,0,7.956-2.448,1.332-.72,1.512-.792h.072a.141.141,0,0,1,.144.108v.072q0,.324-.972.756-5.9,3.06-9.144,3.06a2.8,2.8,0,0,1-2.232-.828,5.588,5.588,0,0,1-1.044-1.908q-.072-.108-.144-.108-.324,0-1.368,1.3a4.58,4.58,0,0,1-3.06,1.584,2.345,2.345,0,0,1-2.268-1.872,7.461,7.461,0,0,1-.108-1.116,6.367,6.367,0,0,1,.648-2.664A.757.757,0,0,1,92.16,45.484Zm21.708-3.528q.4.072.4.4a12.778,12.778,0,0,1-1.116,2.2q-2.592,4.932-2.592,7.992.036,1.116.468,1.116h.144q1.152-.108,3.528-4.356,2.628-4.644,4.1-4.644h.036q1.188,0,1.62,2.952.144,2.052.324,2.052a.663.663,0,0,0,.54.216q.72,0,3.24-1.764a3.639,3.639,0,0,1,1.44-.5q.612,0,1.62,1.152a3.949,3.949,0,0,0,2.664,1.08h.108q2.376,0,6.408-2.448l.18-.036a.255.255,0,0,1,.18.252,4.67,4.67,0,0,1-1.332.792,12.316,12.316,0,0,1-5.58,1.872,4.622,4.622,0,0,1-3.456-1.4,1.158,1.158,0,0,0-.756-.36h-.108a6,6,0,0,0-2.34,1.224,6.267,6.267,0,0,1-2.664,1.188h-.144q-1.044,0-1.224-1.764-.18-2.916-.576-3.348a.439.439,0,0,0-.4-.288h-.036q-1.188,0-4.68,6.084-1.8,3.06-2.916,3.06-.936,0-1.08-2.016v-.18q0-3.2,3.312-9.864Q113.472,41.956,113.868,41.956ZM132.552,69.64q-1.008,0-1.332-2.628-.036-.4-.036-.864,0-4.716,4.1-12.528l.792-1.44q.4-2.268.684-4.482t.288-2.862v-.108q.144-.432.5-.432a.527.527,0,0,1,.324.108.785.785,0,0,1,.216.234.443.443,0,0,1,.072.2v.108q0,.72-.756,5.688h.036q1.26-1.908,2.3-3.348.4-.54,1.332-1.584l.18-.18a8.049,8.049,0,0,1,2.25-1.62,4.821,4.821,0,0,1,1.854-.4,1.918,1.918,0,0,1,1.332.486,2.209,2.209,0,0,1,.648,1.458l.036.4a8.147,8.147,0,0,1-.9,3.276q1.98-.576,4.644-1.17a20.227,20.227,0,0,1,3.78-.594q.432,0,.5.252v.036q0,.216-.468.288-2.052.252-3.708.612t-3.528.9q-1.3.4-1.692.5-.756,1.116-1.44,1.944a8.719,8.719,0,0,1-1.188,1.188,10.753,10.753,0,0,1-2.286,1.6,3.9,3.9,0,0,1-1.566.45,1.806,1.806,0,0,1-.936-.234,1.021,1.021,0,0,1-.468-.81V53.98q0-2.16,6.7-4.356a10.063,10.063,0,0,0,.828-1.512,7.363,7.363,0,0,0,.684-2.556v-.288a1.043,1.043,0,0,0-1.188-1.008,5.665,5.665,0,0,0-3.06,1.584,12.769,12.769,0,0,0-1.332,1.422q-.828.99-1.332,1.71-1.08,1.656-2.268,3.708-.72,4.5-1.08,6.444a51,51,0,0,1-2.232,8.784,5.285,5.285,0,0,1-.594,1.224Q132.912,69.64,132.552,69.64Zm6.984-15.66q1.008,0,3.744-2.34.612-.54,1.332-1.26a18.835,18.835,0,0,0-3.672,1.674q-1.728,1.026-1.728,1.674v.036Q139.212,53.98,139.536,53.98Zm-7.128,14.544q.216,0,.612-1.26,1.332-4.464,2.808-12.06l.252-1.548a60.466,60.466,0,0,0-2.952,6.732,17.819,17.819,0,0,0-1.224,6.048q0,.468.036.864Q132.192,68.524,132.408,68.524Zm24.912-2.34a2.955,2.955,0,0,1-2.628-1.62,8.638,8.638,0,0,1-.972-3.492q-.108-1.08-.108-2.376,0-7.488,3.528-22.464,1.584-6.48,2.628-10.332l-.036.036a.379.379,0,0,1-.306-.108.8.8,0,0,1-.126-.4v-.144a4.471,4.471,0,0,1,1.188-2.412,1.32,1.32,0,0,1,.828-.432.814.814,0,0,1,.684.828v.072l.018.018a.073.073,0,0,1,.018.054v.072a7.586,7.586,0,0,1-.54,2.124,210.777,210.777,0,0,0-5.472,22.824,63.926,63.926,0,0,0-1.116,10.4,18.332,18.332,0,0,0,.108,2.088q.324,3.276,1.8,4.068a2.645,2.645,0,0,0,1.116.216q3.312,0,10.476-7.92,3.528-4.032,6.048-7.416,1.728-2.3,1.944-2.52l.144-.036h.072q.072,0,.144.108v.108a7.165,7.165,0,0,1-1.224,1.692q-2.34,3.24-7.056,8.712Q161.028,66.184,157.32,66.184Zm22.176-13.9A5.362,5.362,0,0,1,177.66,52a2.833,2.833,0,0,1-1.3-.936A3.529,3.529,0,0,1,175.9,49.3a4.763,4.763,0,0,1,.216-1.368,5.038,5.038,0,0,1,.936-1.62,4.746,4.746,0,0,1,1.656-1.368,3.675,3.675,0,0,1,1.476-.4q1.188,0,1.224,1.044a2.144,2.144,0,0,1-.342,1.026,3.422,3.422,0,0,1-1.35,1.152,10.106,10.106,0,0,1-2.952.918l-.036.612q0,2.3,2.808,2.376a13.225,13.225,0,0,0,4.122-.864,30.616,30.616,0,0,0,5.2-2.412q.648-.4,1.332-.864a.63.63,0,0,1,.324-.18.156.156,0,0,1,.126.072.219.219,0,0,1,.054.108q0,.144-.432.4Q183.564,52.288,179.5,52.288Zm-2.448-4.5a5.979,5.979,0,0,0,2.916-1.152,1.578,1.578,0,0,0,.288-.288.987.987,0,0,0,.252-.576.291.291,0,0,0-.162-.27.766.766,0,0,0-.378-.09,2.673,2.673,0,0,0-1.548.72q-.18.144-.5.432l-.108.144q-.144.18-.306.36a1.529,1.529,0,0,0-.234.324Zm19.044-1.872q.288,0,.36.5,0,4.14,2.628,4.14,1.728,0,4.536-1.944l1.476-1.26a1.082,1.082,0,0,1,.18-.036q.252,0,.252.216t-1.368,1.332a12.42,12.42,0,0,1-3.1,1.872,6.412,6.412,0,0,1-2.448.576q-2.016,0-2.844-2.376a2.719,2.719,0,0,0-.4-.864,7.631,7.631,0,0,0-1.44,1.008,5.358,5.358,0,0,1-2.88,1.188h-.036a1.175,1.175,0,0,1-1.26-.936,1.058,1.058,0,0,1-.036-.252V48.94a2.944,2.944,0,0,1,1.4-2.232,4.415,4.415,0,0,1,2.412-.684h.072a6.487,6.487,0,0,1,1.908.324v-.036Q195.84,45.916,196.092,45.916Zm-5.616,2.88a.632.632,0,0,0,.576.684h.144q1.152,0,3.492-2.124,0-.036.144-.18a5.747,5.747,0,0,0-1.512-.216,2.932,2.932,0,0,0-2.772,1.368A2.464,2.464,0,0,0,190.476,48.8Zm15.048,3.168a1,1,0,0,1-1.008-.828,2.827,2.827,0,0,1-.072-.612,7.621,7.621,0,0,1,.324-2.124,15.1,15.1,0,0,1,1.3-2.88,6.638,6.638,0,0,1,1.26-1.728.248.248,0,0,1,.126-.054.758.758,0,0,1,.126-.018h.036a.837.837,0,0,1,.216.144.564.564,0,0,1,.108.144.276.276,0,0,1,.036.108v.036a4.124,4.124,0,0,1-.792,1.044,12.717,12.717,0,0,0-1.512,2.592,6.3,6.3,0,0,0-.54,2.088,2.586,2.586,0,0,0,.072.684.643.643,0,0,0,.4.4l.18.036a3.606,3.606,0,0,0,1.908-.882,29.792,29.792,0,0,0,3.42-3.258,8.461,8.461,0,0,1,2.556-1.944,1.8,1.8,0,0,1,.576-.072q.828,0,2.34,1.944a4.681,4.681,0,0,0,3.852,1.8,14.929,14.929,0,0,0,5.184-1.224h.18q.072,0,.144.108a.639.639,0,0,1-.036.234.362.362,0,0,1-.216.162,5.865,5.865,0,0,1-.576.18,14.541,14.541,0,0,1-4.824,1.08,6.976,6.976,0,0,1-2.592-.432,4.675,4.675,0,0,1-1.98-1.656q-.972-1.116-1.476-1.116l-.144-.036a3.031,3.031,0,0,0-1.584.63,21.869,21.869,0,0,0-2.772,2.466q-3.2,2.988-4.032,2.988Q205.7,52,205.524,51.964Zm4.86-9.972q-.036,0-.072-.054a.175.175,0,0,1-.036-.09v-.036q0-.432,1.188-1.4a1.318,1.318,0,0,1,.684-.288h.144a4.093,4.093,0,0,1,1.872.756,2.11,2.11,0,0,0,.936.252h.216a2.883,2.883,0,0,0,1.548-1.152h.108q.108,0,.108.144v.036q0,.36-1.08,1.332a2.3,2.3,0,0,1-1.008.432h-.18a3.833,3.833,0,0,1-1.728-.612,2.171,2.171,0,0,0-1.044-.324H211.9a1.925,1.925,0,0,0-.63.27,4.116,4.116,0,0,0-.774.738Zm17.064,11.16a2.459,2.459,0,0,1-2.16-1.62,3.515,3.515,0,0,1-.4-1.584,5.754,5.754,0,0,1,.378-2.07,8.29,8.29,0,0,1,1.386-2.214q.576-.648.9-.648a.678.678,0,0,1,.612.36v.144q0,.288-.54.756a3.666,3.666,0,0,0-.432.432,5.591,5.591,0,0,0-1.332,3.492,1.9,1.9,0,0,0,1.08,1.944,2.464,2.464,0,0,0,.468.072,3.21,3.21,0,0,0,.81-.09,2.641,2.641,0,0,0,.918-.594,2.725,2.725,0,0,0,.684-1.764,3.354,3.354,0,0,0-.4-1.368,1.4,1.4,0,0,1-.108-.4q.072-.5.468-.5a5.442,5.442,0,0,1,1.4.468,11.652,11.652,0,0,0,3.564.54,20.012,20.012,0,0,0,6.228-1.116.592.592,0,0,1,.18-.036.251.251,0,0,1,.108.018.118.118,0,0,1,.054.054l.018.036q0,.144-.2.27a2.95,2.95,0,0,1-.738.27,20.344,20.344,0,0,1-6.264.972q-.792,0-1.386-.018t-1.746-.162a.649.649,0,0,0-.288.054.358.358,0,0,0-.162.234,2.2,2.2,0,0,0-.054.576,4.525,4.525,0,0,1-.36,1.584.1.1,0,0,0-.036.072,3.3,3.3,0,0,1-1.908,1.692A2.211,2.211,0,0,1,227.448,53.152ZM243.4,44.224q1.116,0,1.116.576v.108q0,.36-.54.432a4.332,4.332,0,0,0-.648-.072,1.322,1.322,0,0,0-1.3,1.044,3.774,3.774,0,0,0-.072.648v.216q0,1.548,2.484,3.276a18.367,18.367,0,0,1,2.052,1.656q.036,0,.216.216a96.81,96.81,0,0,1,9.072-4.284,13.417,13.417,0,0,1,2.448-.756q.252.072.252.144,0,.252-1.224.576-2.2.792-4.68,1.98-1.152.5-2.808,1.35T247,52.792a8.34,8.34,0,0,1,1.656,4.716,5.653,5.653,0,0,1-2.592,4.68,6.181,6.181,0,0,1-3.42,1.08,4.108,4.108,0,0,1-3.024-1.224,2.777,2.777,0,0,1-.72-1.872v-.108q0-2.88,4.572-5.976a18.476,18.476,0,0,1,2.34-1.3,15.588,15.588,0,0,0-2.664-2.088q-2.268-1.656-2.268-3.528a2.732,2.732,0,0,1,1.62-2.808A2.827,2.827,0,0,1,243.4,44.224Zm-4,15.768a2.687,2.687,0,0,0,2.016,2.628,8.053,8.053,0,0,0,1.332.18,5.674,5.674,0,0,0,4.788-3.348,6.813,6.813,0,0,0,.288-1.944,6.067,6.067,0,0,0-1.656-4.248h-.036A12.33,12.33,0,0,0,243,55.1a14.182,14.182,0,0,0-2.628,2.43A3.905,3.905,0,0,0,239.4,59.992Zm25.668-33.876h.108q.324,0,.432.5-2.484,22.032-2.628,23.472l-1.008,8.64a.3.3,0,0,1-.252.18h-.036q-.216,0-.288-.432.216-1.836,2.34-23.076.864-8.712.936-9Q264.852,26.116,265.068,26.116ZM261.54,61.468h.072q.252,0,.324.36v.144a7.729,7.729,0,0,0-.324,1.944v.648q-.108.432-.36.432-.324,0-.36-.756-.036-.288-.072-1.044,0-1.44.576-1.692Z" transform="translate(-2.772 -13.372)" fill="#d0b885"/>
</svg>
