<svg id="logo-lbel" xmlns="http://www.w3.org/2000/svg" width="98.43" height="23.002" viewBox="0 0 98.43 23.002">
  <path id="Unión_2" data-name="Unión 2" d="M78.607,23V0h2.35V20.606H98.43V23ZM53.123,23V0H72.9V2.4H55.479V8.234H69.12v2.394H55.479v9.979H72.941V23ZM25.756,23V0H39.3a5.152,5.152,0,0,1,2.78.824A5.3,5.3,0,0,1,44.412,5.95a5.256,5.256,0,0,1-1.174,2.682,7.314,7.314,0,0,1,3.559,2.7,7.474,7.474,0,0,1-.752,9.487A7.17,7.17,0,0,1,40.946,23Zm2.356-2.4H40.946v.007a4.88,4.88,0,0,0,3.466-1.481,5.025,5.025,0,0,0,1.421-3.54,5.083,5.083,0,0,0-1.458-3.521,4.9,4.9,0,0,0-3.489-1.443H28.112Zm0-12.365H39.4a2.9,2.9,0,0,0,2.019-.885,2.955,2.955,0,0,0-.061-4.129A2.846,2.846,0,0,0,39.313,2.4h-11.2ZM0,23V0H2.356V20.606H19.818V23ZM17.466,4.715V0h2.353V6.26Z" fill="#20004e"/>
</svg>
