<svg id="logo-lbel" xmlns="http://www.w3.org/2000/svg" width="143.43" height="33.002" viewBox="0 0 143.43 33.002">
  <path id="Unión_2" data-name="Unión 2" d="M19210.543,12184v-33h3.424v29.564h25.461V12184Zm-37.135,0v-33h28.82v3.447h-25.387v8.367h19.877v3.434h-19.877v14.316h25.445V12184Zm-39.879,0v-33h19.734a7.592,7.592,0,0,1,4.051,1.183,7.53,7.53,0,0,1,1.689,11.2,10.6,10.6,0,0,1,4.09,17.479,10.525,10.525,0,0,1-7.43,3.139Zm3.434-3.447h18.7v.01a7.163,7.163,0,1,0-.088-14.326h-18.613Zm0-17.74h16.445a4.185,4.185,0,0,0,4.123-4.254,4.187,4.187,0,0,0-4.248-4.123h-16.32ZM19096,12184v-33h3.434v29.564h25.445V12184Zm25.451-26.237V12151h3.428v8.976Z" transform="translate(-19095.998 -12150.996)" fill="#fff"/>
</svg>
